<mxfile host="app.diagrams.net" modified="2022-03-19T14:55:54.103Z" agent="5.0 (Macintosh; Intel Mac OS X 10_15_7) AppleWebKit/605.1.15 (KHTML, like Gecko) Version/15.2 Safari/605.1.15" etag="63gOHfiJat-S1Moai3LQ" version="17.1.3" type="github">
  <diagram name="Log parser" id="b5b7bab2-c9e2-2cf4-8b2a-24fd1a2a6d21">
    <mxGraphModel dx="1389" dy="739" grid="1" gridSize="10" guides="1" tooltips="1" connect="1" arrows="1" fold="1" page="1" pageScale="1" pageWidth="827" pageHeight="1169" background="none" math="0" shadow="0">
      <root>
        <mxCell id="0" />
        <mxCell id="1" parent="0" />
        <mxCell id="cvZBhcmpL4nV925hNqEm-75" value="«Log processor»&lt;br&gt;&lt;b&gt;Component&lt;/b&gt;" style="html=1;dropTarget=0;align=left;verticalAlign=bottom;labelPosition=right;verticalLabelPosition=top;glass=0;" vertex="1" parent="1">
          <mxGeometry x="70" y="340" width="640" height="490" as="geometry" />
        </mxCell>
        <mxCell id="cvZBhcmpL4nV925hNqEm-76" value="" style="shape=module;jettyWidth=8;jettyHeight=4;" vertex="1" parent="cvZBhcmpL4nV925hNqEm-75">
          <mxGeometry x="1" width="20" height="20" relative="1" as="geometry">
            <mxPoint x="-27" y="7" as="offset" />
          </mxGeometry>
        </mxCell>
        <mxCell id="cvZBhcmpL4nV925hNqEm-54" style="edgeStyle=orthogonalEdgeStyle;rounded=0;orthogonalLoop=1;jettySize=auto;html=1;exitX=0;exitY=0.5;exitDx=0;exitDy=0;entryX=1;entryY=0.5;entryDx=0;entryDy=0;entryPerimeter=0;endArrow=none;endFill=0;" edge="1" parent="1" source="cvZBhcmpL4nV925hNqEm-1" target="cvZBhcmpL4nV925hNqEm-53">
          <mxGeometry relative="1" as="geometry" />
        </mxCell>
        <mxCell id="cvZBhcmpL4nV925hNqEm-1" value="«Reader»&lt;br&gt;&lt;b&gt;Component&lt;/b&gt;" style="html=1;dropTarget=0;" vertex="1" parent="1">
          <mxGeometry x="300" y="190" width="180" height="90" as="geometry" />
        </mxCell>
        <mxCell id="cvZBhcmpL4nV925hNqEm-2" value="" style="shape=module;jettyWidth=8;jettyHeight=4;" vertex="1" parent="cvZBhcmpL4nV925hNqEm-1">
          <mxGeometry x="1" width="20" height="20" relative="1" as="geometry">
            <mxPoint x="-27" y="7" as="offset" />
          </mxGeometry>
        </mxCell>
        <mxCell id="cvZBhcmpL4nV925hNqEm-12" style="edgeStyle=orthogonalEdgeStyle;rounded=0;orthogonalLoop=1;jettySize=auto;html=1;exitX=0.5;exitY=0;exitDx=0;exitDy=0;entryX=1;entryY=0.5;entryDx=0;entryDy=0;entryPerimeter=0;endArrow=none;endFill=0;" edge="1" parent="1" source="cvZBhcmpL4nV925hNqEm-3" target="cvZBhcmpL4nV925hNqEm-8">
          <mxGeometry relative="1" as="geometry" />
        </mxCell>
        <mxCell id="cvZBhcmpL4nV925hNqEm-3" value="«Extractor»&lt;br&gt;&lt;b&gt;Component&lt;/b&gt;" style="html=1;dropTarget=0;" vertex="1" parent="1">
          <mxGeometry x="300" y="360" width="180" height="90" as="geometry" />
        </mxCell>
        <mxCell id="cvZBhcmpL4nV925hNqEm-4" value="" style="shape=module;jettyWidth=8;jettyHeight=4;" vertex="1" parent="cvZBhcmpL4nV925hNqEm-3">
          <mxGeometry x="1" width="20" height="20" relative="1" as="geometry">
            <mxPoint x="-27" y="7" as="offset" />
          </mxGeometry>
        </mxCell>
        <mxCell id="cvZBhcmpL4nV925hNqEm-13" style="edgeStyle=orthogonalEdgeStyle;rounded=0;orthogonalLoop=1;jettySize=auto;html=1;exitX=0;exitY=0.5;exitDx=0;exitDy=0;exitPerimeter=0;entryX=0.5;entryY=1;entryDx=0;entryDy=0;endArrow=none;endFill=0;" edge="1" parent="1" source="cvZBhcmpL4nV925hNqEm-8" target="cvZBhcmpL4nV925hNqEm-1">
          <mxGeometry relative="1" as="geometry" />
        </mxCell>
        <mxCell id="cvZBhcmpL4nV925hNqEm-14" value="" style="edgeStyle=orthogonalEdgeStyle;rounded=0;orthogonalLoop=1;jettySize=auto;html=1;endArrow=none;endFill=0;" edge="1" parent="1" source="cvZBhcmpL4nV925hNqEm-8" target="cvZBhcmpL4nV925hNqEm-1">
          <mxGeometry relative="1" as="geometry" />
        </mxCell>
        <mxCell id="cvZBhcmpL4nV925hNqEm-8" value="Line" style="shape=providedRequiredInterface;html=1;verticalLabelPosition=bottom;sketch=0;rotation=90;textDirection=ltr;labelPosition=center;align=center;verticalAlign=top;" vertex="1" parent="1">
          <mxGeometry x="380" y="310" width="20" height="20" as="geometry" />
        </mxCell>
        <mxCell id="cvZBhcmpL4nV925hNqEm-15" value="«Filter»&lt;br&gt;&lt;b&gt;Component&lt;/b&gt;" style="html=1;dropTarget=0;" vertex="1" parent="1">
          <mxGeometry x="300" y="540" width="180" height="90" as="geometry" />
        </mxCell>
        <mxCell id="cvZBhcmpL4nV925hNqEm-16" value="" style="shape=module;jettyWidth=8;jettyHeight=4;" vertex="1" parent="cvZBhcmpL4nV925hNqEm-15">
          <mxGeometry x="1" width="20" height="20" relative="1" as="geometry">
            <mxPoint x="-27" y="7" as="offset" />
          </mxGeometry>
        </mxCell>
        <mxCell id="cvZBhcmpL4nV925hNqEm-21" style="edgeStyle=orthogonalEdgeStyle;rounded=0;orthogonalLoop=1;jettySize=auto;html=1;exitX=0;exitY=0.5;exitDx=0;exitDy=0;exitPerimeter=0;entryX=0.5;entryY=1;entryDx=0;entryDy=0;endArrow=none;endFill=0;" edge="1" parent="1" source="cvZBhcmpL4nV925hNqEm-20" target="cvZBhcmpL4nV925hNqEm-3">
          <mxGeometry relative="1" as="geometry" />
        </mxCell>
        <mxCell id="cvZBhcmpL4nV925hNqEm-22" style="edgeStyle=orthogonalEdgeStyle;rounded=0;orthogonalLoop=1;jettySize=auto;html=1;exitX=1;exitY=0.5;exitDx=0;exitDy=0;exitPerimeter=0;entryX=0.5;entryY=0;entryDx=0;entryDy=0;endArrow=none;endFill=0;" edge="1" parent="1" source="cvZBhcmpL4nV925hNqEm-20" target="cvZBhcmpL4nV925hNqEm-15">
          <mxGeometry relative="1" as="geometry" />
        </mxCell>
        <mxCell id="cvZBhcmpL4nV925hNqEm-20" value="Map&amp;lt;k,v&amp;gt;" style="shape=providedRequiredInterface;html=1;verticalLabelPosition=bottom;sketch=0;rotation=90;" vertex="1" parent="1">
          <mxGeometry x="380" y="490" width="20" height="20" as="geometry" />
        </mxCell>
        <mxCell id="cvZBhcmpL4nV925hNqEm-23" value="«Formatter»&lt;br&gt;&lt;b&gt;Component&lt;/b&gt;" style="html=1;dropTarget=0;" vertex="1" parent="1">
          <mxGeometry x="300" y="720" width="180" height="90" as="geometry" />
        </mxCell>
        <mxCell id="cvZBhcmpL4nV925hNqEm-24" value="" style="shape=module;jettyWidth=8;jettyHeight=4;" vertex="1" parent="cvZBhcmpL4nV925hNqEm-23">
          <mxGeometry x="1" width="20" height="20" relative="1" as="geometry">
            <mxPoint x="-27" y="7" as="offset" />
          </mxGeometry>
        </mxCell>
        <mxCell id="cvZBhcmpL4nV925hNqEm-26" style="edgeStyle=orthogonalEdgeStyle;rounded=0;orthogonalLoop=1;jettySize=auto;html=1;exitX=1;exitY=0.5;exitDx=0;exitDy=0;exitPerimeter=0;entryX=0.5;entryY=0;entryDx=0;entryDy=0;endArrow=none;endFill=0;" edge="1" parent="1" source="cvZBhcmpL4nV925hNqEm-25" target="cvZBhcmpL4nV925hNqEm-23">
          <mxGeometry relative="1" as="geometry" />
        </mxCell>
        <mxCell id="cvZBhcmpL4nV925hNqEm-27" style="edgeStyle=orthogonalEdgeStyle;rounded=0;orthogonalLoop=1;jettySize=auto;html=1;exitX=0;exitY=0.5;exitDx=0;exitDy=0;exitPerimeter=0;entryX=0.5;entryY=1;entryDx=0;entryDy=0;endArrow=none;endFill=0;" edge="1" parent="1" source="cvZBhcmpL4nV925hNqEm-25" target="cvZBhcmpL4nV925hNqEm-15">
          <mxGeometry relative="1" as="geometry" />
        </mxCell>
        <mxCell id="cvZBhcmpL4nV925hNqEm-25" value="Map&amp;lt;k,v&amp;gt;" style="shape=providedRequiredInterface;html=1;verticalLabelPosition=bottom;sketch=0;rotation=90;" vertex="1" parent="1">
          <mxGeometry x="380" y="670" width="20" height="20" as="geometry" />
        </mxCell>
        <mxCell id="cvZBhcmpL4nV925hNqEm-72" style="edgeStyle=orthogonalEdgeStyle;rounded=0;orthogonalLoop=1;jettySize=auto;html=1;exitX=0.5;exitY=1;exitDx=0;exitDy=0;endArrow=circle;endFill=0;" edge="1" parent="1" source="cvZBhcmpL4nV925hNqEm-28">
          <mxGeometry relative="1" as="geometry">
            <mxPoint x="390.3103448275863" y="1049.9999999999998" as="targetPoint" />
          </mxGeometry>
        </mxCell>
        <mxCell id="cvZBhcmpL4nV925hNqEm-73" value="Bytes" style="edgeLabel;html=1;align=center;verticalAlign=bottom;resizable=0;points=[];labelPosition=center;verticalLabelPosition=top;" vertex="1" connectable="0" parent="cvZBhcmpL4nV925hNqEm-72">
          <mxGeometry x="0.6853" y="1" relative="1" as="geometry">
            <mxPoint as="offset" />
          </mxGeometry>
        </mxCell>
        <mxCell id="cvZBhcmpL4nV925hNqEm-28" value="«Writer»&lt;br&gt;&lt;b&gt;Component&lt;/b&gt;" style="html=1;dropTarget=0;" vertex="1" parent="1">
          <mxGeometry x="300" y="890" width="180" height="90" as="geometry" />
        </mxCell>
        <mxCell id="cvZBhcmpL4nV925hNqEm-29" value="" style="shape=module;jettyWidth=8;jettyHeight=4;" vertex="1" parent="cvZBhcmpL4nV925hNqEm-28">
          <mxGeometry x="1" width="20" height="20" relative="1" as="geometry">
            <mxPoint x="-27" y="7" as="offset" />
          </mxGeometry>
        </mxCell>
        <mxCell id="cvZBhcmpL4nV925hNqEm-31" style="edgeStyle=orthogonalEdgeStyle;rounded=0;orthogonalLoop=1;jettySize=auto;html=1;exitX=0;exitY=0.5;exitDx=0;exitDy=0;exitPerimeter=0;entryX=0.5;entryY=1;entryDx=0;entryDy=0;endArrow=none;endFill=0;" edge="1" parent="1" source="cvZBhcmpL4nV925hNqEm-30" target="cvZBhcmpL4nV925hNqEm-23">
          <mxGeometry relative="1" as="geometry" />
        </mxCell>
        <mxCell id="cvZBhcmpL4nV925hNqEm-32" style="edgeStyle=orthogonalEdgeStyle;rounded=0;orthogonalLoop=1;jettySize=auto;html=1;exitX=1;exitY=0.5;exitDx=0;exitDy=0;exitPerimeter=0;entryX=0.5;entryY=0;entryDx=0;entryDy=0;endArrow=none;endFill=0;" edge="1" parent="1" source="cvZBhcmpL4nV925hNqEm-30" target="cvZBhcmpL4nV925hNqEm-28">
          <mxGeometry relative="1" as="geometry" />
        </mxCell>
        <mxCell id="cvZBhcmpL4nV925hNqEm-30" value="Bytes" style="shape=providedRequiredInterface;html=1;verticalLabelPosition=bottom;sketch=0;rotation=90;" vertex="1" parent="1">
          <mxGeometry x="380" y="840" width="20" height="20" as="geometry" />
        </mxCell>
        <mxCell id="cvZBhcmpL4nV925hNqEm-52" style="edgeStyle=orthogonalEdgeStyle;rounded=0;orthogonalLoop=1;jettySize=auto;html=1;exitX=0.5;exitY=0;exitDx=0;exitDy=0;entryX=1;entryY=0.5;entryDx=0;entryDy=0;entryPerimeter=0;endArrow=none;endFill=0;" edge="1" parent="1" source="cvZBhcmpL4nV925hNqEm-33" target="cvZBhcmpL4nV925hNqEm-51">
          <mxGeometry relative="1" as="geometry" />
        </mxCell>
        <mxCell id="cvZBhcmpL4nV925hNqEm-64" style="edgeStyle=orthogonalEdgeStyle;rounded=0;orthogonalLoop=1;jettySize=auto;html=1;exitX=0.5;exitY=1;exitDx=0;exitDy=0;entryX=0;entryY=0.5;entryDx=0;entryDy=0;entryPerimeter=0;endArrow=none;endFill=0;" edge="1" parent="1" source="cvZBhcmpL4nV925hNqEm-33" target="cvZBhcmpL4nV925hNqEm-60">
          <mxGeometry relative="1" as="geometry" />
        </mxCell>
        <mxCell id="cvZBhcmpL4nV925hNqEm-33" value="«Configuration»&lt;br&gt;&lt;b&gt;Component&lt;/b&gt;" style="html=1;dropTarget=0;" vertex="1" parent="1">
          <mxGeometry x="30" y="190" width="180" height="90" as="geometry" />
        </mxCell>
        <mxCell id="cvZBhcmpL4nV925hNqEm-34" value="" style="shape=module;jettyWidth=8;jettyHeight=4;" vertex="1" parent="cvZBhcmpL4nV925hNqEm-33">
          <mxGeometry x="1" width="20" height="20" relative="1" as="geometry">
            <mxPoint x="-27" y="7" as="offset" />
          </mxGeometry>
        </mxCell>
        <mxCell id="cvZBhcmpL4nV925hNqEm-49" style="edgeStyle=orthogonalEdgeStyle;rounded=0;orthogonalLoop=1;jettySize=auto;html=1;exitX=1;exitY=0.5;exitDx=0;exitDy=0;exitPerimeter=0;entryX=0.5;entryY=0;entryDx=0;entryDy=0;endArrow=none;endFill=0;" edge="1" parent="1" source="cvZBhcmpL4nV925hNqEm-48" target="cvZBhcmpL4nV925hNqEm-1">
          <mxGeometry relative="1" as="geometry" />
        </mxCell>
        <mxCell id="cvZBhcmpL4nV925hNqEm-48" value="Stream" style="shape=requiredInterface;html=1;verticalLabelPosition=bottom;sketch=0;rotation=90;" vertex="1" parent="1">
          <mxGeometry x="385" y="120" width="10" height="20" as="geometry" />
        </mxCell>
        <mxCell id="cvZBhcmpL4nV925hNqEm-51" value="Argv" style="shape=requiredInterface;html=1;verticalLabelPosition=bottom;sketch=0;rotation=90;" vertex="1" parent="1">
          <mxGeometry x="115" y="120" width="10" height="20" as="geometry" />
        </mxCell>
        <mxCell id="cvZBhcmpL4nV925hNqEm-55" style="edgeStyle=orthogonalEdgeStyle;rounded=0;orthogonalLoop=1;jettySize=auto;html=1;exitX=0;exitY=0.5;exitDx=0;exitDy=0;exitPerimeter=0;entryX=1;entryY=0.5;entryDx=0;entryDy=0;endArrow=none;endFill=0;" edge="1" parent="1" source="cvZBhcmpL4nV925hNqEm-53" target="cvZBhcmpL4nV925hNqEm-33">
          <mxGeometry relative="1" as="geometry" />
        </mxCell>
        <mxCell id="cvZBhcmpL4nV925hNqEm-53" value="File path" style="shape=providedRequiredInterface;html=1;verticalLabelPosition=bottom;sketch=0;" vertex="1" parent="1">
          <mxGeometry x="250" y="225" width="20" height="20" as="geometry" />
        </mxCell>
        <mxCell id="cvZBhcmpL4nV925hNqEm-57" style="edgeStyle=orthogonalEdgeStyle;rounded=0;orthogonalLoop=1;jettySize=auto;html=1;exitX=1;exitY=0.5;exitDx=0;exitDy=0;exitPerimeter=0;entryX=0;entryY=0.5;entryDx=0;entryDy=0;endArrow=none;endFill=0;" edge="1" parent="1" source="cvZBhcmpL4nV925hNqEm-56" target="cvZBhcmpL4nV925hNqEm-3">
          <mxGeometry relative="1" as="geometry" />
        </mxCell>
        <mxCell id="cvZBhcmpL4nV925hNqEm-67" style="edgeStyle=orthogonalEdgeStyle;rounded=0;orthogonalLoop=1;jettySize=auto;html=1;exitX=0;exitY=0.5;exitDx=0;exitDy=0;exitPerimeter=0;endArrow=none;endFill=0;" edge="1" parent="1" source="cvZBhcmpL4nV925hNqEm-56">
          <mxGeometry relative="1" as="geometry">
            <mxPoint x="119.99999999999977" y="405.1379310344828" as="targetPoint" />
          </mxGeometry>
        </mxCell>
        <mxCell id="cvZBhcmpL4nV925hNqEm-56" value="Configuration" style="shape=providedRequiredInterface;html=1;verticalLabelPosition=bottom;sketch=0;" vertex="1" parent="1">
          <mxGeometry x="250" y="395" width="20" height="20" as="geometry" />
        </mxCell>
        <mxCell id="cvZBhcmpL4nV925hNqEm-62" style="edgeStyle=orthogonalEdgeStyle;rounded=0;orthogonalLoop=1;jettySize=auto;html=1;exitX=1;exitY=0.5;exitDx=0;exitDy=0;exitPerimeter=0;entryX=0;entryY=0.5;entryDx=0;entryDy=0;endArrow=none;endFill=0;" edge="1" parent="1" source="cvZBhcmpL4nV925hNqEm-58" target="cvZBhcmpL4nV925hNqEm-15">
          <mxGeometry relative="1" as="geometry" />
        </mxCell>
        <mxCell id="cvZBhcmpL4nV925hNqEm-66" style="edgeStyle=orthogonalEdgeStyle;rounded=0;orthogonalLoop=1;jettySize=auto;html=1;exitX=0;exitY=0.5;exitDx=0;exitDy=0;exitPerimeter=0;endArrow=none;endFill=0;" edge="1" parent="1" source="cvZBhcmpL4nV925hNqEm-58">
          <mxGeometry relative="1" as="geometry">
            <mxPoint x="119.99999999999977" y="585.1379310344828" as="targetPoint" />
          </mxGeometry>
        </mxCell>
        <mxCell id="cvZBhcmpL4nV925hNqEm-58" value="Configuration" style="shape=providedRequiredInterface;html=1;verticalLabelPosition=bottom;sketch=0;" vertex="1" parent="1">
          <mxGeometry x="250" y="575" width="20" height="20" as="geometry" />
        </mxCell>
        <mxCell id="cvZBhcmpL4nV925hNqEm-61" style="edgeStyle=orthogonalEdgeStyle;rounded=0;orthogonalLoop=1;jettySize=auto;html=1;exitX=1;exitY=0.5;exitDx=0;exitDy=0;exitPerimeter=0;entryX=0;entryY=0.5;entryDx=0;entryDy=0;endArrow=none;endFill=0;" edge="1" parent="1" source="cvZBhcmpL4nV925hNqEm-59" target="cvZBhcmpL4nV925hNqEm-23">
          <mxGeometry relative="1" as="geometry" />
        </mxCell>
        <mxCell id="cvZBhcmpL4nV925hNqEm-65" style="edgeStyle=orthogonalEdgeStyle;rounded=0;orthogonalLoop=1;jettySize=auto;html=1;exitX=0;exitY=0.5;exitDx=0;exitDy=0;exitPerimeter=0;endArrow=none;endFill=0;" edge="1" parent="1" source="cvZBhcmpL4nV925hNqEm-59">
          <mxGeometry relative="1" as="geometry">
            <mxPoint x="119.99999999999977" y="765.1379310344828" as="targetPoint" />
          </mxGeometry>
        </mxCell>
        <mxCell id="cvZBhcmpL4nV925hNqEm-59" value="Configuration" style="shape=providedRequiredInterface;html=1;verticalLabelPosition=bottom;sketch=0;" vertex="1" parent="1">
          <mxGeometry x="250" y="755" width="20" height="20" as="geometry" />
        </mxCell>
        <mxCell id="cvZBhcmpL4nV925hNqEm-63" style="edgeStyle=orthogonalEdgeStyle;rounded=0;orthogonalLoop=1;jettySize=auto;html=1;exitX=1;exitY=0.5;exitDx=0;exitDy=0;exitPerimeter=0;entryX=0;entryY=0.5;entryDx=0;entryDy=0;endArrow=none;endFill=0;" edge="1" parent="1" source="cvZBhcmpL4nV925hNqEm-60" target="cvZBhcmpL4nV925hNqEm-28">
          <mxGeometry relative="1" as="geometry" />
        </mxCell>
        <mxCell id="cvZBhcmpL4nV925hNqEm-60" value="Configuration" style="shape=providedRequiredInterface;html=1;verticalLabelPosition=bottom;sketch=0;" vertex="1" parent="1">
          <mxGeometry x="250" y="925" width="20" height="20" as="geometry" />
        </mxCell>
      </root>
    </mxGraphModel>
  </diagram>
</mxfile>
